/* XPM */
static char *_781f2a01d7f4bccfbee43178fda3c57YwNHfLgYMfYOCPXp[] = {
/* columns rows colors chars-per-pixel */
"64 64 250 2 ",
"   c #1B0909",
".  c #140C0E",
"X  c #28080A",
"o  c #360707",
"O  c #38150C",
"+  c #2A0C14",
"@  c #2A1819",
"#  c #381718",
"$  c #310E0F",
"%  c #382418",
"&  c #2E2215",
"*  c #381D22",
"=  c #2B1F21",
"-  c #2D2621",
";  c #392626",
":  c #3A332A",
">  c #3B3836",
",  c #342F30",
"<  c #461817",
"1  c #551717",
"2  c #490C0E",
"3  c #47251D",
"4  c #55271A",
"5  c #48321E",
"6  c #481B25",
"7  c #5A1826",
"8  c #500C20",
"9  c #4B2424",
"0  c #482929",
"q  c #562928",
"w  c #44332D",
"e  c #4A352A",
"r  c #5B342C",
"t  c #56362C",
"y  c #492C34",
"u  c #582D34",
"i  c #443434",
"p  c #4B3439",
"a  c #493936",
"s  c #533433",
"d  c #5A3433",
"f  c #533B35",
"g  c #5B3B34",
"h  c #5C353A",
"j  c #533C3C",
"k  c #5B3C3B",
"l  c #53363A",
"z  c #662929",
"x  c #762B29",
"c  c #68362C",
"v  c #76392D",
"b  c #672C36",
"n  c #643432",
"m  c #633B34",
"M  c #633C3C",
"N  c #693738",
"B  c #763A38",
"V  c #752A33",
"C  c #661F21",
"Z  c #394135",
"A  c #4A4439",
"S  c #55423C",
"D  c #5B433C",
"F  c #59493A",
"G  c #5A402B",
"H  c #6C443B",
"J  c #674538",
"K  c #78463A",
"L  c #704A35",
"P  c #5B3C42",
"I  c #553941",
"U  c #4B3C42",
"Y  c #683D44",
"T  c #743B45",
"R  c #4C4745",
"E  c #5C4343",
"W  c #5B4C45",
"Q  c #554947",
"!  c #5A5449",
"~  c #5C5655",
"^  c #564E52",
"/  c #644444",
"(  c #6C4343",
")  c #644A45",
"_  c #6B4B44",
"`  c #6B4C4B",
"'  c #67474B",
"]  c #734445",
"[  c #734B44",
"{  c #7C4B42",
"}  c #734C4B",
"|  c #7A4C4B",
" . c #784547",
".. c #6C534C",
"X. c #66564B",
"o. c #7C5344",
"O. c #77554B",
"+. c #6A4C53",
"@. c #7C4C53",
"#. c #744B54",
"$. c #6C5453",
"%. c #665857",
"&. c #735354",
"*. c #7C5453",
"=. c #735A55",
"-. c #745B5B",
";. c #7C5C5B",
":. c #785758",
">. c #5A635B",
",. c #6A635B",
"<. c #766359",
"1. c #7C604A",
"2. c #785C62",
"3. c #6C5C64",
"4. c #5B6964",
"5. c #6C6462",
"6. c #696967",
"7. c #7B6B64",
"8. c #756C6A",
"9. c #7C6C6B",
"0. c #776665",
"q. c #6A7468",
"w. c #7C736C",
"e. c #767469",
"r. c #6B787A",
"t. c #797874",
"y. c #756A71",
"u. c #853B38",
"i. c #8C293B",
"p. c #85473B",
"a. c #924E3C",
"s. c #8D3E4E",
"d. c #864945",
"f. c #825544",
"g. c #885649",
"h. c #955749",
"j. c #874B52",
"k. c #825353",
"l. c #835C5B",
"z. c #865856",
"x. c #965957",
"c. c #94494B",
"v. c #83635B",
"b. c #8B645C",
"n. c #896456",
"m. c #966559",
"M. c #916551",
"N. c #A1675A",
"B. c #8F5C63",
"V. c #846D6B",
"C. c #876966",
"Z. c #946867",
"A. c #87756B",
"S. c #97756A",
"D. c #876A73",
"F. c #966C73",
"G. c #837B73",
"H. c #8C7C74",
"J. c #887878",
"K. c #977977",
"L. c #A46D69",
"P. c #A57B76",
"I. c #AC796F",
"U. c #A7554E",
"Y. c #7C847A",
"T. c #6F847F",
"R. c #84837D",
"E. c #8A837C",
"W. c #888779",
"Q. c #94847D",
"!. c #9B837C",
"~. c #988778",
"^. c #8E8B74",
"/. c #A4857A",
"(. c #B18B7B",
"). c #7A7D80",
"_. c #8C7E82",
"`. c #977C82",
"'. c #AB7C87",
"]. c #7A8584",
"[. c #7D9890",
"{. c #8B8482",
"}. c #8B8B82",
"|. c #888989",
" X c #938483",
".X c #9C8B84",
"XX c #938C8B",
"oX c #9C8C8B",
"OX c #988686",
"+X c #8A9687",
"@X c #93938D",
"#X c #9C938C",
"$X c #99978A",
"%X c #998D92",
"&X c #8A9896",
"*X c #9C9492",
"=X c #9B9B95",
"-X c #979997",
";X c #8A8D92",
":X c #A28D8A",
">X c #A78886",
",X c #B68B87",
"<X c #A4938D",
"1X c #A79589",
"2X c #B7938A",
"3X c #A58C92",
"4X c #A49393",
"5X c #A39B93",
"6X c #A49C9B",
"7X c #AA9897",
"8X c #B69A97",
"9X c #B58B92",
"0X c #9AA298",
"qX c #A3A39C",
"wX c #ABA39B",
"eX c #A7A497",
"rX c #B7A59C",
"tX c #AFA994",
"yX c #9C9AA1",
"uX c #A89CA3",
"iX c #B79EA4",
"pX c #98A3A2",
"aX c #ACA4A2",
"sX c #ACADAA",
"dX c #A7A9A6",
"fX c #B4ABAB",
"gX c #B6A7A6",
"hX c #ADB2AA",
"jX c #B9B3AA",
"kX c #B8ADB4",
"lX c #B8B8B7",
"zX c #A6B2B5",
"xX c #C79B97",
"cX c #C5928F",
"vX c #C6A698",
"bX c #CFA397",
"nX c #C7B4A9",
"mX c #C6B8B5",
"MX c #D6B8B8",
"NX c #D0ADA8",
"BX c #E6ACB0",
"VX c #B8C1BE",
"CX c #C7C3BB",
"ZX c #D5C5BD",
"AX c #B7B8C1",
"SX c #CCBFC1",
"DX c #BEC6C6",
"FX c #C8C9C9",
"GX c #D0CECD",
"HX c #FBDBCE",
/* pixels */
"AXiX;X_.lXlXlXhX=XsXjXsXfXgXuXuXpXzXzXzXkXDXAXzXzXDXlXkXmXFXAXlXaXfXyXyX].].].4.y.`.iXuXAXdXFXlXGXMXmXwX}.5X+X>.>.Y.>.q.t.T.Y.-X",
"7XgXkXiXgX@X#X#XmXnX$X/.4X3X`._.zXGXzXuX`._.;X&XDXAX4X7X9X7X6XGXmX%X;X).r.4.dXzXyX`.%X'.uX_.zXGX8X>X:XQ.OXoX*X=X0XW.-XdX-XhX@XdX",
"m b.>XS.1.L L J (.(.K M.n.z. .h 9.iXC.# * U y Q GXK.q b Y  .` MX`.+ Y U 3.y.fXSX3.Y I P #.U y.NXu $ o $ 6 C.3XP Q %.$.U `.iX%.%.",
"[ n.(.Z.f.K f.L (.(.g./.m.z.z.[ ' MXB.N #.T @.Y BXS.T B.h.g.N BX9Xu +.' +.@ iXkX+.j.T #.2.I 2.iXF.b N T # ' F.* j l * + 3.7X+.X ",
"_ J Z.b.O.L f.f.(.cX| l.O.*.b.*.K.8Xk.q  .k.( v.BX/.j.L.x.j.n xXcX# / l $.y 7XiXh @.@. .&.P 2.3Xj.Y b y 6 +.`.E p p p i D.iXyX`.",
"p X.`.;._ O.C.x.(.,Xk.2.v.C.V.<.w.7XP u h e / +.NXH.J ] N [ g S.z.0 h ) X.@ 7X8X` :.+./ ' f %.Q.' Y 0 $ + +.H.i - , R = 3.3Xy._.",
"^ 5.%X3.I +.#.' C.Z.#.2.2.3.~ ^ 6.pXdX-X=X-Xq.>.hXhX=X=XR.}.}.*XV.i A w A ~ W.#X#X1XE.G.e.,.q.e._.-.$.7.W X.*XE.Q . , , 5.sX%X^ ",
"uX%XkXiX8X8X8XNXMXNXMXMXmX7X%X-XlXFXDXGXFXFXAXlXVXlXhXlXdXlXlXqX7X>X1X*X^.$X1X5XwXjXwXtXhXwX0XW.4X7XH..X5X5XjXfX5XXXt.J.6X*XuX*X",
"ZX8X/.(.I.(.bXcXbXBXbX2X/.(.wXnXMXiX`.%X3X3XOX`.D.D.D.E iXMXD.9XxXL.F.Z.Z.C.P.P.C.P.F.iX9X7.-.;.v.l.S.v...S.!.K.V.rX:XC.V..XH.8X",
"HXS.G L K v p.K v p.g.M.L c ,XvXZ.l.#.#.#.#.} #.:.#.#.h 9X8XY k.x.j.T  .B n  .u b q 6 cXF.q } } ] o.Z.] r H _ r < b.C.< O $ $ 0 ",
"cXM.f.S.N.h.a.a.h.h.a.N.M.f.NX/.m ] *.;.2.} ( T  .@.&.0 9X9X[ B.z.k.z.T 9 } ( *.} &.0 NX3Xl $.' O.] b.b.] H H [ g C.S.# d M } ( ",
"~.S.n.f.g.a.M.N.a.N.M.M.o.L vXn.*.z.O._ P ( @.z.N l._ % 2X!.( F.l.( } d q &.q y 9 l # 3XK.p +.' [ H O.k.J 3 r } J l.F.9 s s ( / ",
"n.<.) ` C.=.J o.;.1._ 0 F =.5XK.M ( ` ) ) _ _ M ] :...S :X~.} } / ;._ / s X y 0 i ; I gX0.* U E W X.X.) f S ) W j f W ; w ; X   ",
"#X{.%.$.K..XH.H.<.X.) W XX$Xt.Q l P j A W 0.H.F.;.` %.e.}.$XOX..W F : E H.J.oXG.4X{.*XlXXX5.3.%.W ! A S W W W A : A ,.~ , * : ^ ",
"kXfXkXgXgXmXlXwX5XQ.E.E.*X-X|._.0.t.|.|.-XzXkXuX-X@X&X0X&XzXlX=XsX$XeX5XjXmX*X5XqXaX=X@XdXyX;X@XqX*X}.5XqX{.J.}.J.t._.y.6.t.J.).",
"`.0.7XZX:XH.Q.7.X.e. X*X:X3X7X4X4XdX0X}.W.XXoX`.{.hXpX&X].].{.$XeXhX<X1X>X<XoXdXVXsXjXsXuX{.dXhXQ.1X1XrXrX#X5XwX4XK. XV._.4X%X9.",
"B 2 b.vX_ _ J e   % rX/.m.I.I.Z.v.rXvXn.g.a.p.c H.jXZ - % 5 c 5 ^.tX] B K B _ ^.CX7.Y @.e X W.tXG p.L p.4 L /.~.L K d.# ..gX(.< ",
"s.u.S.,X[ [ s f : : ~.z.B u.u.{ J (.bXM.h.U.a.p.1..X: e t t K J ^.~.v c.c.p.[ X.jX>Xq 7 N O W.jXK a.u.u.u.n A.~.v x x u.v.tXB.8 ",
"B q z.3X&.+.E = . R 3X2.b b j.k.f 8XMXm.p.d.u.4 -.6X^ R s Y | J /.1Xb x.s.c./ i tXrXb T T $ J.jXK v u.u.c.N S.K.z V V j.P `.F.8 ",
"Y < ' 3X%.> , . . ^ uX%.# 0 h y R #XmX*.q q 4 X J.gX5.U i g ( s E..X7 T s.@.i W fX.X6 Y 6 + XXfXD 4 z L q u V.C.< V z u X y.'.T ",
"R Q ,.XX).4.4.r.r.;XlX@Xt.t.J.G.>.;XjX Xe.w.t.q.Y.-X|.0X*X7.J t E.t.y s u a . ~ ).> . y p ~ dXpX! A a A @ A XXE.S f q F , 6.aX%X",
"jXjXnXZXdXpXzXpXdX-XdXpXdXfXnXnXmXjXmXnX5X$X+X^.jXmXfXmXZXjXrXtXjX1XV.-.X.v.,.}.aX}.y.oX4X7XyX=XQ.W.Y.q.9.E.jXeXrX~.!.1XR.+XdX#X",
"nX(.NXNX2XnXmXjXxX9X,X>X>X2XcXcXxX,X(.,X/.nXrX1XZ.I.P.S./.I.I.N.I.S.O.n.~./.~.~.S.H.C.K.S.K.K.1X1X~.$XtXQ.F.!.C._ L K g.n.^.~.^.",
"f.M.L.h.g.z.n.xXI.x.K ] K L v p.v s.x z c vX1XL m.N.N.h.M.K L a.h.p.4 S.NXn.4 g J L J K r r r g t e F $Xs d _ r m H v L G F e J ",
"f.h.h.a.x.o.o.bXx.x.c.d.o.m.h.h.u.U.c.c.K vX/.L m.h.a.N.M.M.p.h.h.B 4 S.vX1.G f.n.{ K L L O.L K J F W J.` ( l.M H J K K L L X.F ",
"f.a.a.p.h.m.z.bXN.j.d.d.o.x.d.c.d.c.u.s.n 2X~.O.f.g.a.v G K K p.K K 4 S.tXf.o.o.K f.m.o.[ L L J O.S Q 7X>X( M &.o.c c K H G G G ",
"M.K K L ] O.&.9Xj.Y M Y } H z n z T N T #.gXF.* J J L J G _ _ m f.{ < /.nX..n.b.k.| x. .k.} *.*.D 0 P `.#.Y l.#.( ] N b 0 ; ; 0 ",
"] m [ g.*.E S J.OXV.V.V.:X:XC.;.Z.;.D.iXgX7X5.^ =.X...X.=.<.=.' d s # J.$XW F X.*.( Y d J s f j D y 3.`.Y y Q p q q 6 q a Q p 0 ",
"1X>X1XrXwX}.}.hXlXdXpXhXCXFXqXE.t.t.|.&XyXdX%X;X$X$X0XeXeX5X%X{.8.G.t.@XeX0Xe.,.X.$.2.2.7.e.Y.Y.w.1X7X4X:X9.6.8.0.:.;.~.Y.Y.8.9.",
",XvX>XgXCXjXlXlXzXzXGXFXoX}.E.R.0X&X0XpXyX-X%X3X0X=X^.1X!.7.9.%XaX}.R.R.t.+Xq.W.%X>X>X`.4X$X0X$X=.A.O...<.w.=X}.Q./.P.~.q.+XOX`.",
"2 x 4 P.NXK.F.;.,.w.wXNXh u g ) <.tXCX9.I y 8 $ ,Xv.O r 1 2 8 F.7XX.S ) a D w K.K.@.j.j.,X&.^.^.L C 1 p.B r ~.1.c c 1 2 & W.F.6 ",
"i.a.1 (.BX| | } $.! A.8XN | | *.F A.<X-.Y Y T 7 2XS.< x V V 8 @.>X_ / &.g Y e >XP.7 c.N.cX< O.~.v p.x u.z 4 /.G 1 x x z O S.L.2 ",
"i.s.8 ,XxXr C.} ..) ..OX' ] N } ; 8.iX+.Y ` Y / >X>X2 V 7 b 7 N 9X;.p P 6 T + `.l.<  .P.BX7 D.P.K u.1 x o c ~.g.4 c z 1 r (.m.o ",
"7 7 < F.K.# / ( ) + F 5Xp 9 h / . 5.8X&.P a # X J.J.o b < 6 X i 3X+.U a y P + J.V.D g M c.2 H.1XK v c L 3 n.S.L < < 4 < q P.*.O ",
"C.C.9.{.*X%.V.W i 8.dXW., >.t.! q.-X4X<.! ~ 7.e.+X}.; r * , - 6.9.> Z > Q Q > ].}.w.>.e 6 X ! 7.D r t G - e..X0.D i e ; ; %.Q - ",
"SXSXfXlXmXmXmX:X7XrXfXqX@XaX0XeX0X$X7XrXtX5X1X5X$X+XA.C.A.e.e.}.$XY.Y.Y.oX{.q.0XtXtX^.7.2.$.W.XXK.S.w.,.A t.5XOXK.G.J.t.8.@X*XJ.",
"kXjXH.vX9X,X,X,XxX,X2X(.1XjX1XhX8Xb.S.L.m.S.b./.~.^.2X2X>X1XgXA.OX X.XoX:X.XG.Q.>X9X1X5XnX8X1X9XcX'.>X1XK.:X>XF.B.B.K.vX*XK.`.`.",
".X1Xf S.g.g.h.p.B h.h.g.o.L 5 (.S.H x.d.N { K k.n.=.o.k.e V.:XS s ` ` =.$.C.:.&.] ] ` <.1XS.r n V V ] =.$.}  .N T u Y 8XJ.* y b ",
"^.$Xt z.m.m.M.p.p.N.h.p.M.M.% /.P. .x.d.N K z.b.b.v.*.z.s D.7Xp P :.} :.$.=.=._ j. ./ : 5XA.m d.N K H J J J O.d. .N e tXH.O N Y ",
"^.eX..b.m.z.L f.K K d.h.K L G /.cXk.Z.x.g.N z.*.l.v.&.` E V.8XU I +.+.&.$.) ..M @.@.) & eXA.n d.x H r t J L g.c K { e (.A.% [ n ",
"0X6XY 2.B.j.T Y d n B b T  .} 1XS.} n.O.[ [ k.*.*.( =.&.E -.3Xy + I Y #.$.D D ] z.T U p @XW.r B n H e J o.G K L K m J ^.1.: 3 t ",
"%X6X+.#.+.I y U P ) 6 Y B.Y / iX8XX.A F =.W =.C.K.&.j R   %.3X0.%.3.+.' e A.K.&.6 U - @ +Xt.o q g t e 0 _ J O q < 3 % A F A f e ",
"kXGX4X%X_.t.3.|.qX}.Q.~.K.`.A.jXjXqXY.Y.^.5XdX~.1XG.t.e._.;XXX*X;XyXyX6Xe.$X X0.~ >.).>.+XW.F X.7.6.8.9. XA.<.=.! q.G.}.}.Y.Y.t.",
"kXFXmXmXgXmX@X*XW.Q.H.C.7XrX4X<X<XwX0XhXjX$X$X$X1X5XjX0XdXaX}.6X;XyX6X3X5X1X~.!.{.%XyX;XXX$X/.~.@X-X XJ.:X!.OXoXjX^.G.}.@XY.|.&X",
"l.O.v.C.b.vXb.< < O q X 8XbX9 :.} *...5XQ.% 3 M b k.nX5X# +.2.K.Q J.xXl.O.o.m.S.3XfX-.h ` @.M.n.OXuXF.6 T T 6 K.4Xi X X # * y.lX",
"g.] O.} r I.x.2 z z c O bX8XT j.B.Z.k ~.Z.< n q B 1 Z.1Xg l. . .' 2.9X{ K K a.1 V.7X .T B z v 2 H.iX#.8 V C X ;.!.s N K h 6 %.{.",
"j.*.*.( 6 B.x.1 V z T # K.8XC.z.x.d.< /.Z.o c z x 2 n.~.g q m l.+.-.2XK v v h.c H.#X] T z x M.L W.#X7 T x C 4 1.~.O 3 q q g 9.Y.",
"Y #.' Y y F.j.2 u b $ $ J.gXC.Y Y Y 0 8XS.$ g q B 2 =.^.# _ } _ I 3.K.r J K v q w.5X' M |  .c 5 #XE.$ q 4 4 O A.~.& e r 3 3 6.e.",
"E +.i p * 0.OXE 3.i %.~ {.oXR i a R 5.iXt.p ^ ^ * + 9.y.R S e D & ,.wX5.Q R Q @ ~ R.0.E E E I 0.4Xy.4.R , 6   X.G.9.F A ;   , 4.",
"7X%X{.8.5.{.fXdX*XXX|.{.=X$XE.e.t.R. X6X_.].;X).y.y.%XOXt.}.V.=.W ,.*XR.].).].r.;XfXuXt.{.*XuXuXlXsX[.[.G.9.9.E.K.Q.e.A.C.0.Y.[.",
"ZXjXjXaXjXsX-X*XdXqXdXhXVXhXjXqX0X6XiXmXsXsXyX&XkX3X3X4XeXtX8X8X1X!.oXJ.XXdX-X=X=XgXaX4X4XaX6XOXoXeXhXhXH.S.!.(.K.S.A.A.Z.~.$X^.",
"<X:XJ.9.%.9.3.gXaX5.9.w.A.<.X.,.W X.$.;.t.t.dXSX:XD.-.0.7...o.z.z.v.v.$._.gXJ.8.Q.w.,.K.) 5.%.%.J f e.<.r O.J m 4 < 3 t z 4 e Z ",
"6 7 q Y b u # F.F.* y h ` } ( } } ;.] 9 s ; OX.X* g d m _ [ d.K c B H r D.9X..E ` ) ;.8X=.O.f f ( 9 v.C.c g.N c B z c K K B H F ",
"j.z N T ] q 6 Z.9X] @.*.*.O.k.Y O.b.k.} ;.e :XA.g ( _ H O.{ K p.p.d. .q F.>XM ..) J O.O.D f ) ) Y r *.K.N N | N d.B c q z B J D ",
"H m ( M 6 # 9 <.xX/ &._ k ` ` s } } M [ =.E !.w.j f k J g c K K c c ] d >X>Xy ` ) ..=.J ) ) ` D ( ; I 9.E ' ` h g h E h P Y 0 : ",
"f f f f % -.V.Q. X+ X.%.X.7.f f k &.) ) Q 0.5X,.i W <.D e J n q r m J # H.V.; Q j F e e f F w , E * %.0.p X.Q -.p i I p j i - R ",
"F =.! ! X.G.W.jX=X,.! A A ,.! ,.9.H.w.,.R 6.@X=Xe.W.E.w.,.V.1.X.<.,.~ ~ $X5.>.~ R : w a A w a ^ R > ,.e.6.>.t.5.%.8.%.~ q.>.>.t.",
"1XnXnXtXjX5XwXeXhXwXwX#X$XlX5XtXgXoXwXaX}.@XaXXXpXhXtXwXrX1XH.w.A.}.}.-X=X0X-X-Xt.oXQ.H.<.w.H.5.0.6.G.e.R.qX0Xt.XX5X X X|.t.Y.+X",
"8X2X/.xX8X_ :.&.<.' :X8XC.C.C.V.`.3XkXJ.0.J.OXJ.fXtX7.=.A.v.V.1XmXoX#X*X_.3.%X*X3.V./ =.e E OXD.A.O.o.H .X~.f X # # $ ` ^..X<.w ",
"H c < P.P.9 Y / / o :.>Xu 9 s h y >XgXi P / u P iXgXf h Y d ) 8X>X% p p U + D.%XY / # M # h K.C.q c z 2 K.rX_ 3 g d r H !.~.J q ",
"{ o.g ,X9XJ &.k +.0 &.C.s / k k # D.7Xp +.@.b  .>X8Xu *.| N 0 K.>X6 P P , + _.'.h ( M Y 9 B.C.q c v V 2 Z.A.< 6 d 7 6 8 v.!.9 q ",
"H g n A.2Xg ` I y @ &.D.j P l p $ 7.8X+.P #.k.N P.>X9 } _ _ f .XK.o P y I + ).'.# 0 u 3 3 C.0.e O b z o '  XP $ * y b 6 %.<.$ 3 ",
"<.t s ) H.w w i i ; _.gX%.^ j i - t.qXq.a g m O 7.=.& a e G A $XH.X p ; U . 3._.X.W ! A R W.+X$X3.Q u 0 ).pX;X4.R U , = 4.].^ i ",
"^.A.A.7.5XQ.8.8.8.J.gXaXOX X! R e.0X+XY.7.0.<.=.^.W.e.A.^.>.! W.e.e U i U ^ )._.5X$X$X^.q.Y.+X&X@X8.2.2.].[.;X).).r.6.6.r.[.&Xr."
};
